# xmcd
#
# Track frame offsets: 
#        150
#        44754
#        58891
#        80810
#        107898
#        140821
#        166218
#        188868
#        209511
#        225661
#        232567
#
# Disc length: 3282 seconds
#
# Revision: 0
# Processed by: cddbd v1.5.2PL0 Copyright (c) Steve Scherf et al.
# Submitted via: ExactAudioCopy v0.95a5
#
DISCID=9f0cd00b
DTITLE=Shabotinski - Stenimals
DYEAR=1900
DGENRE=
TTITLE0=Provided With Toys
TTITLE1=Lure
TTITLE2=Glorious As Rome
TTITLE3=Stenimals
TTITLE4=Cold Comfort (Lux)
TTITLE5=Cygnus A
TTITLE6=Prayer
TTITLE7=Glacial Silt
TTITLE8=Uecat
TTITLE9=Drivin' My Life Away
TTITLE10=Crumb
EXTD=
EXTT0=
EXTT1=
EXTT2=
EXTT3=
EXTT4=
EXTT5=
EXTT6=
EXTT7=
EXTT8=
EXTT9=
EXTT10=
PLAYORDER=
